<?xml version="1.0" standalone="no"?>
<!DOCTYPE svg PUBLIC "-//W3C//DTD SVG 20010904//EN"
 "http://www.w3.org/TR/2001/REC-SVG-20010904/DTD/svg10.dtd">
<svg version="1.0" xmlns="http://www.w3.org/2000/svg"
 width="114.000000pt" height="114.000000pt" viewBox="0 0 114.000000 114.000000"
 preserveAspectRatio="xMidYMid meet">
<metadata>
Created by potrace 1.11, written by Peter Selinger 2001-2013
</metadata>
<g transform="translate(0.000000,114.000000) scale(0.100000,-0.100000)"
fill="#000000" stroke="none">
<path d="M207 1089 c43 -78 69 -102 101 -95 15 4 35 16 45 28 17 20 37 21 81
3 17 -7 18 -5 11 16 -4 13 -7 34 -7 46 0 18 -8 24 -34 29 -19 3 -34 10 -34 15
0 5 -43 9 -96 9 l-95 0 28 -51z"/>
<path d="M764 1113 c-4 -14 -1 -41 5 -60 12 -32 11 -36 -24 -78 -20 -25 -41
-45 -46 -45 -6 0 -8 -8 -5 -17 8 -26 -5 -38 -42 -40 -40 -1 -82 -37 -82 -70 0
-30 -26 -30 -77 -1 -46 27 -53 35 -53 70 0 22 -7 31 -36 43 -39 16 -74 20 -74
7 0 -4 14 -24 31 -45 l30 -37 -34 0 c-23 0 -41 -8 -56 -24 -14 -15 -29 -22
-39 -19 -12 5 -14 2 -7 -18 4 -13 8 -44 9 -68 1 -37 5 -45 26 -53 14 -5 28
-16 33 -24 4 -8 14 -14 21 -14 8 0 16 -14 20 -32 3 -17 14 -40 23 -50 9 -10
16 -31 15 -47 -1 -28 1 -29 36 -24 20 2 57 0 82 -6 35 -8 42 -7 30 2 -30 23
-49 59 -40 76 5 9 11 24 14 34 4 13 16 17 48 17 30 0 39 3 31 11 -6 6 -25 8
-48 3 -29 -5 -39 -13 -47 -36 -14 -40 -28 -18 -28 45 l0 48 -52 -2 c-60 -3
-137 18 -145 39 -13 32 20 42 146 45 97 2 126 6 135 18 6 9 34 22 62 29 44 11
57 11 85 -1 19 -7 36 -13 39 -12 3 1 7 -10 8 -23 1 -14 7 -34 12 -45 7 -13 7
-19 0 -19 -5 0 -10 -6 -10 -14 0 -8 -15 -16 -37 -20 -53 -8 -86 -27 -89 -51
-4 -30 14 -45 49 -39 30 5 31 5 13 -10 -19 -16 -19 -16 2 -39 12 -13 22 -31
22 -40 0 -9 9 -22 20 -29 11 -7 20 -18 20 -24 0 -10 21 -24 35 -24 2 0 16 20
31 44 29 46 96 86 143 86 20 0 22 4 19 43 -3 40 -5 42 -43 52 -76 19 -87 47
-29 71 l35 15 -39 39 c-22 22 -47 40 -55 40 -9 0 -19 5 -22 10 -3 6 -28 10
-55 10 l-48 0 -4 41 c-5 51 9 60 37 26 30 -38 38 -34 31 16 -5 33 -3 47 9 57
11 9 12 16 5 25 -14 16 11 38 34 29 13 -5 16 -1 14 24 -3 36 30 77 77 98 28
12 22 13 -67 14 -97 0 -98 0 -104 -27z m112 -500 c-1 -1 -19 0 -39 4 -33 5
-37 9 -37 35 l0 29 39 -33 c22 -18 39 -34 37 -35z m-61 -23 c-3 -5 -11 -10
-16 -10 -6 0 -7 5 -4 10 3 6 11 10 16 10 6 0 7 -4 4 -10z m3 -43 c-9 -9 -26
-12 -48 -9 l-34 5 45 16 c45 17 61 12 37 -12z m-378 -37 c0 -5 -5 -10 -11 -10
-5 0 -7 5 -4 10 3 6 8 10 11 10 2 0 4 -4 4 -10z"/>
<path d="M1023 1129 c9 -6 25 -8 35 -5 10 3 32 2 50 -3 25 -8 32 -7 32 5 0 11
-15 14 -67 14 -52 -1 -64 -3 -50 -11z"/>
<path d="M497 1039 c-36 -39 -44 -59 -31 -72 14 -14 62 27 73 62 16 53 -1 57
-42 10z"/>
<path d="M1118 1039 c-22 -38 -23 -55 -2 -63 23 -9 26 -4 22 48 l-3 46 -17
-31z"/>
<path d="M472 894 c-14 -25 -2 -64 19 -64 20 0 44 35 34 50 -3 6 -15 14 -25
20 -14 8 -21 6 -28 -6z"/>
<path d="M866 894 c-9 -8 -16 -24 -16 -33 0 -26 38 -71 60 -71 41 0 49 53 9
65 -14 5 -18 12 -13 31 7 28 -15 33 -40 8z"/>
<path d="M261 891 c-12 -8 -13 -14 -2 -37 13 -30 25 -24 35 19 7 29 -6 35 -33
18z"/>
<path d="M37 883 c-12 -22 -16 -63 -7 -63 18 0 80 51 74 61 -6 11 -61 12 -67
2z"/>
<path d="M120 743 c0 -5 14 -28 30 -52 l30 -44 0 39 c0 22 -5 45 -12 52 -13
13 -48 16 -48 5z"/>
<path d="M200 738 c0 -17 18 -44 24 -37 8 7 -5 49 -15 49 -5 0 -9 -6 -9 -12z"/>
<path d="M1108 354 c-20 -38 -24 -69 -8 -59 6 3 10 2 10 -4 0 -5 -5 -11 -11
-13 -7 -2 -10 -9 -8 -16 3 -9 9 -9 25 2 16 12 21 27 23 70 1 31 -2 56 -6 56
-5 0 -16 -16 -25 -36z"/>
<path d="M363 373 c-7 -2 -13 -12 -13 -21 -1 -9 -13 -42 -28 -72 -23 -46 -36
-59 -79 -80 -29 -14 -52 -29 -53 -34 0 -8 57 -4 95 8 14 4 26 -3 43 -24 l23
-30 -38 3 c-36 2 -38 1 -35 -26 3 -26 1 -27 -25 -21 -44 10 -48 10 -48 -6 0
-24 49 -24 102 0 26 12 75 24 109 27 l61 6 -19 51 c-19 50 -20 96 -2 154 5 18
3 22 -16 22 -17 0 -21 -4 -17 -20 3 -11 2 -22 -3 -25 -13 -8 -20 37 -9 57 17
31 -9 47 -48 31z"/>
<path d="M755 310 c-7 -12 44 -82 55 -75 15 9 21 57 9 71 -13 16 -55 19 -64 4z"/>
<path d="M210 284 c-12 -21 -12 -27 0 -34 18 -11 38 -2 45 21 14 42 -24 54
-45 13z"/>
<path d="M0 233 c1 -23 9 -32 45 -50 25 -12 47 -18 50 -13 8 13 -58 89 -77 89
-13 1 -18 -7 -18 -26z"/>
<path d="M1073 227 c-6 -10 24 -57 37 -57 11 0 30 33 30 53 0 15 -58 19 -67 4z"/>
<path d="M814 15 c27 -21 126 -21 126 0 0 18 -12 19 -27 4 -8 -8 -13 -8 -17 0
-4 6 -28 11 -54 11 -44 -1 -46 -2 -28 -15z"/>
<path d="M27 3 c18 -2 50 -2 70 0 21 2 7 4 -32 4 -38 0 -55 -2 -38 -4z"/>
</g>
</svg>
