<svg xmlns="http://www.w3.org/2000/svg" viewBox="-100 -300 600 600">>
	<path fill="#fc8c33" d="M62.9 88.7c-1-1.7-1.6-1.6-3.8.6-.6.6-1.3 1.1-1.6 1.1-.3 0-.8.4-1.1.8-.3.4-.9.8-1.3.8s-.7.2-.7.4-.2.4-.5.3c-.3-.1-1.2.3-2.1.8-.9.5-1.8.8-1.9.6-.1-.1-.2-.1-.2.1s-.9.6-2 .9c-1.1.3-2.1.7-2.2.9-.1.2-.7.3-1.4.3s-1.3.2-1.4.4c-.1.2-.7.4-1.3.4s-1.3.2-1.5.4c-.2.2-1.2.4-2.2.5-1 .1-2 .2-2.2.4-.2.2-2.3.3-4.5.4-2.2 0-4 .2-3.9.4.1.2-3.3.4-7.8.4-5.1 0-8 .1-8 .4 0 .2-.8.4-1.8.4s-1.8.2-1.8.4-.3.4-.6.4c-1.6 0-5.8 3-5.8 4.2 0 .3-.2.6-.5.7-1.1.4-.9 9.3.3 11.1 1.3 2 3.4 4.2 3.9 4.1.2-.1.4.2.4.5s.2.5.4.4c.2-.1.4 0 .4.2 0 .5 2.3 2.8 2.9 2.8.2 0 .2.2.1.4s0 .4.4.4c.3 0 .6.2.6.4s.4.4.8.4.8.2.8.4c0 .6 3.3 3.6 3.9 3.6.2 0 .6.4.9.8.3.4.8.8 1.1.8.3 0 1 .4 1.5 1 .5.5 1.3 1.1 1.8 1.2.4.1.8.4.8.6 0 .2.5.5 1.2.8.7.3 1.2.7 1.2.8 0 .2.2.4.4.4.4 0 2.6 1.4 3.2 2a14 14 0 003.5 1.7c.1-.1.5.3 1 .7.5.4 1.1.8 1.4.8.3 0 .5.1.5.3s.6.6 1.4.9c.8.3 1.4.7 1.4.9s.3.3.6.3.6.2.6.4.4.4.8.4.8.2.8.4.3.4.8.4c.4 0 .8.1.9.3.2.5 3.5 2.1 4.3 2.1.6 0 .6.1.1.4-.5.3-.5.4.1.4.4 0 1.3.4 2.1.8s1.7.8 2 .8.6.1.6.3c0 .2.6.5 1.3.8l3.7 1.7c1.3.6 2.7 1.2 3.1 1.2.4 0 .7.2.7.4s.2.4.4.4l1.8.6 1.7.6 1.2.6c.5.3 1.1.6 1.4.5.5-.1.8 0 2.9.8 1.9.7 3.7 1.2 4.5 1.2.5 0 .9.2.9.4s.5.4 1.2.4 1.2.2 1.2.4.9.4 2 .4 2 .2 2 .4c0 .5 6.7.5 7 0a11 11 0 012.3-1.5c12.7-6.6 22.7-17.3 22.7-24.1 0-3-1.8-9-3.1-10.4l-.9-1.2c-.9-1.7-4.4-4-12.8-8.2a67.7 67.7 0 01-9-5c-1.1 0-9.4-6.7-13.7-11.1a81.1 81.1 0 01-10.3-12.1"/>
	<path fill="#fbcc64" d="M179.2.4a348 348 0 00-38.2.7c-1 0-1.9.2-2 .4s-1 .4-1.8.4-1.6.2-1.6.4-.8.4-1.8.4c-1.1 0-1.7.2-1.6.4.1.2-.3.4-1 .4s-1.3.2-1.4.4c-.1.2-.7.4-1.2.4s-1.1.2-1.2.4c-.1.2-.7.4-1.2.4s-1 .2-1 .4-.5.4-1.1.4c-.6 0-1.6.4-2.1.8s-1.3.8-1.7.8-.8.2-.9.4c-.1.2-.5.4-.8.4-.8 0-3.8 1.3-3.8 1.7 0 .2-.2.3-.6.3-.3 0-.8.3-1.1.6-.3.3-.7.6-.9.6-.8-.1-2.2.5-2.1.8.1.2-.9.9-2.1 1.5-1.3.7-2.6 1.6-3.1 2.1-.4.5-1 .8-1.3.8-.3 0-.5.2-.5.4s-.2.4-.4.4-.9.5-1.6 1.2a141.8 141.8 0 00-15.2 14.6c-.2-.1-.4 0-.4.3s-.4.9-.8 1.4-.8 1-.8 1.3-.2.4-.4.4-.4.3-.4.6-.2.5-.4.4c-.2-.1-.4 0-.4.4 0 .3-.2.6-.4.6s-.4.4-.4.8-.1.8-.3.8c-.2 0-.6.4-.9 1-.3.6-.6.9-.7.8-.2-.2-1.3 1.7-1.3 2.3 0 .4-.4.9-1.6 2.2l-.7 1.2c0 .3-.4.8-.7 1.2-.4.3-.6 1.1-.6 1.6s-.2 1-.4 1-.3.3-.3.6-.2.6-.4.6-.4.3-.4.8c0 .4-.2.9-.4 1-.2.1-.4.6-.4 1s-.1.8-.3.8c-.4 0-1.3 1.9-1.3 2.7 0 .3-.2.5-.3.5s-.6.8-.9 1.7c-.3.9-.6 1.8-.8 1.9-.3.3-1.2 3-1.2 3.7 0 .4-.2.7-.4.7s-.4.5-.4 1c0 .6-.2 1-.4 1s-.4.5-.4 1c0 .6-.2 1-.4 1s-.4.6-.4 1.4c0 .8-.1 1.3-.3 1.2-.2-.1-.4.3-.4.8 0 .6-.3 1.2-.5 1.5s-.4 1.2-.5 2.1c-.1.9-.2 1.7-.4 1.7s-.3.5-.3 1.2c0 .6-.1 1.3-.3 1.4-.4.3-.6 4.2-.2 4.2.2 0 1.7 1.8 3.3 4a82 82 0 0030.2 25l7.4 3.8a17.7 17.7 0 015.8 26.6c-1.6 2.2-6 6.3-8 7.7l-1 .8c-.4.5-5.2 3.6-5.6 3.6-.2 0-.4.2-.4.4s-.3.4-.6.4-.6.1-.6.3-.6.6-1.4.9c-.8.3-1.4.7-1.4.8s-.6.5-1.4.8c-1.7.7-1.8 1.1-.2 2.4.7.5 1.2 1.3 1.2 1.7 0 .4.1.7.3.7.5 0 1.7 2.3 1.4 2.6-.2.2-.1.2.2 0 .3-.2.5-.1.5 0 .1 1.1.4 1.8.9 2.3.4.4.5.8.4 1-.1.2 0 .4.3.4s.4.1.2.3c-.1.1-.1.5.2.8s.3.5.1.5c-.2 0-.2.1.1.3.6.4 1.8 3.7 1.6 4.1-.1.2-.1.4.1.4s.5.5.6 1.1l.8 3.3c.3 1.2.6 2.7.6 3.3a23.6 23.6 0 01.9 8.4c0 .6.1 1.1.3 1.1.1 0 .3.5.3 1 .1.7-.1.9-.4.7-.4-.2-.4-.2 0 .3.6.6.7 2 .1 2-.2 0-.4 1.1-.4 2.4 0 1.5-.1 2.3-.4 2.2-.2-.1-.4.3-.4 1.2 0 .8-.1 1.4-.3 1.4-.2 0-.5.4-.8.8-.3.5-.4.7-.1.6.3-.2.3 0-.1.5-.3.4-.7.7-.9.6-.2-.1-.3-.1-.1.1.4.4-.7 2.2-2.7 4.3-.4.5-.8 1-.7 1.2.1.2-.1.3-.3.3s-.3.2-.2.4c.1.2 0 .4-.4.4a1 1 0 00-.9.7c-.1.4-1.1 1.5-2.2 2.6-1 1-1.8 2-1.7 2.1.1.1 0 .2-.2.2-.5 0-2.2 1.6-3.4 3.4-.4.6-.9 1-1 .9-.1-.1-.7.5-1.2 1.4-.5.8-1.1 1.5-1.2 1.4-.1-.1-.5.1-.7.4-.3.3-.4.6-.2.6s0 .2-.4.5-.6.7-.5 1c.1.2 0 .5-.3.6-.3.1-.9.9-1.3 1.6-.4.8-.8 1.4-1 1.4-.2 0-.3.2-.3.5s-.5 1-1 1.7c-.6.7-1.3 1.9-1.6 2.7-.3.8-.8 1.5-1 1.5-.2 0-.4.4-.4.8 0 .5-.2.7-.4.6-.2-.1-.4.2-.4.8s-.2.9-.4.8c-.2-.1-.4.1-.5.6-.1 1.3-.1 1.5-.4 1.9-.2.2-.3.6-.3.9 0 .3-.4 1.1-.8 1.6s-.8 1.5-.8 2c0 .6-.3 1.6-.6 2.3-.4.7-.7 2-.9 2.9-.1.9-.4 1.5-.6 1.4-.2-.1-.3.5-.3 1.3 0 .9-.1 1.7-.3 1.8-.3.3-.3.5-.4 3.2 0 .8-.2 1.4-.4 1.3-.2-.1-.4 1.3-.4 3.1-.1 1.8-.3 3.5-.5 3.7-.5.6-.5 24.2-.1 24.2.2 0 .4.9.4 2.1.1 1.1.3 2.2.6 2.4.4.2.4.3 0 .3-.3 0-.4.2-.1.7.7 1.3 1.3 3.6 1.3 4.8 0 .7.1 1.3.3 1.3.3 0 .5.9.6 2.7 0 .3.2.4.4.3.3-.2.5 1.4.4 2.4 0 .2.1.2.4.1.2-.2.4.2.4 1 0 .7.2 1.2.4 1.2s.4.3.4.6.4 1.3.8 2.2.8 1.9.8 2.4.2.7.4.6c.2-.1.4.2.4.8 0 .6.2.9.4.8.2-.1.4.2.4.7 0 .5.4 1.3.8 1.8s.8 1.1.8 1.5c0 .3.1.6.3.6.3 0 1.3 1.9 1.3 2.5 0 .2.4.7.8 1.2s.7 1.1.6 1.4c-.1.3.1.5.4.5.4 0 .5.2.4.6-.1.4-.1.5.2.4.2-.1.4.1.4.5s.1.9.3.9l1.7 2.1a32 32 0 001.9 2.6c-.2 0 0 .3.4.7 1.2 1.3 2.1 2.5 2.1 2.8 0 .2.5.9 1.2 1.6s1.2 1.5 1.2 1.7.2.3.4.2.4 0 .4.4c0 .3.2.6.4.6s.4.2.4.4.5.9 1 1.4c.6.6 1.3 1.4 1.6 2 .3.5.8.9 1 .8.2-.1.4 0 .4.2l.1.9c0 .3.3.5.6.5s.6.3.6.6.2.6.5.5c.3-.1.4.1.3.3-.1.2.2.6.7 1 .5.3 2.7 2.4 5 4.5a40.5 40.5 0 007.3 6.4c.4.4.7.8.5 1.1-.1.2 0 .3.2.1.3-.2 1 .3 1.8 1.1.7.8 1.4 1.4 1.6 1.4.1 0 .7.4 1.3 1 .6.5 1.3 1 1.5 1s.7.4 1 .8c.3.4.9.8 1.3.8s.6.2.5.4c-.1.2.2.4.7.4.7 0 .8.1.3.4-.5.3-.4.4.3.4.5 0 .9.2.9.4s.2.4.5.4 1.1.5 1.9 1.2 1.6 1.2 1.9 1.2c.3 0 .5.2.5.4s.3.4.7.4c.4 0 .9.3 1.2.7l.9.8.9.1c.2 0 .3.2.2.4s.1.4.6.4.7.2.6.4c-.1.2 0 .4.4.4s1.4.5 2.4 1.2a7 7 0 002.3 1.2c.3 0 .8.3 1.1.6s.6.6.7.5c.4-.1 3.3 1.3 4.2 2.1.4.4.6.4.5.1-.2-.3.3-.1 1 .3s1.7.8 2.1.8c.4 0 .6.2.5.4-.1.2 0 .4.4.4.3 0 1 .2 1.5.5 1.9 1 2.3 1.1 3.1 1.1.5 0 .7.1.6.3-.1.2.3.4.9.4.6 0 1.1.2 1.3.4.1.2.7.4 1.2.4l1.2.4 1.4.4c.7.1 1.3.3 1.3.5.1.2.7.4 1.5.4.7 0 1.5.2 1.6.4.1.2.8.4 1.4.4.6 0 1.2.1 1.2.3 0 .9 100.6 1.1 101.7.1.4-.3.8-.4.9-.3.1.1 0 .3-.3.3s-.4.1-.3.3c.1.1.5.1.8-.2.3-.2 1.7-.5 3.2-.5 1.5 0 2.6-.2 2.5-.4-.1-.2 1-.3 2.4-.3 1.7 0 2.6-.1 2.4-.4-.2-.3 3-.7 4.3-.4.2 0 .2-.1.1-.4-.2-.3.4-.4 1.6-.4 1.2 0 1.8-.2 1.8-.5s.1-.3.4.1.4.4.4.1c0-.3.6-.5 1.4-.5.8 0 1.4-.2 1.4-.4s.8-.4 1.8-.4 1.8-.2 1.8-.4.3-.4.7-.4c.8 0 3.2-.7 4.2-1.2.4-.2 1.2-.4 1.9-.4s1.2-.2 1.2-.4c0-.3 3.2-1 3.9-.8.1 0 .4-.1.5-.4.2-.3.5-.5.8-.6 1.6-.3 3.1-.8 3.9-1.4.5-.4 1-.6 1.1-.5.3.2 2.5-.4 2.5-.7 0-.2.1-.3.3-.3.2 0 .8-.1 1.4-.4a5 5 0 011.5-.5l1.4-.6c.6-.3 1-.5 1-.3s.2.1.3-.2c.2-.3.7-.5 1.2-.6.5 0 .7-.2.6-.4-.2-.3.8-.5 1.6-.4.2 0 .2-.1.1-.4-.2-.4.6-.6 1.5-.5.2 0 .3-.1.3-.4s.2-.4.4-.4c.5 0 2.9-1.6 3.1-2.1.1-.2.5-.3.9-.3s.8-.2.8-.4.4-.4 1-.4 1.2-.3 1.5-.6l1.9-1.3 1.6-.9c.6-.7 2.9-2.1 2.6-1.6-.2.3 0 .2.4-.2s.8-.8 1-.7c.2.1.4-.1.4-.4 0-.3.1-.4.2-.2s.6-.2 1.1-.6c.5-.5 1.5-1.2 2.4-1.7.8-.4 1.5-.9 1.5-1.1 0-.2.2-.2.4-.1s.4 0 .4-.3.5-.8 1-1c.6-.3 1.1-.7 1.2-1.1.1-.3.4-.6.7-.6.3 0 1-.5 1.7-1.2s1.6-1.2 2-1.2c.6 0 .6-.1.1-.4-.5-.3-.4-.4.3-.4.5 0 .8-.2.7-.4-.1-.2.1-.4.4-.4.4 0 .6-.1.4-.3-.1-.1.8-1.2 2-2.3a148.6 148.6 0 0017.7-19.5c.2 0 .3-.2.2-.4-.1-.2.1-.6.5-.9.8-.6 1.3-1.4 2.3-3.4.4-.7.8-1.3 1-1.3s.5-.5.8-1.2c.3-.7.7-1.2.8-1.2.2 0 .4-.3.4-.6s.1-.6.3-.6c.2 0 .8-1 1.3-2.2s1.1-2.2 1.3-2.2c.2 0 .3-.4.3-.8s.2-.8.4-.8.4-.2.4-.4.3-.7.6-1 .5-.8.4-1c-.1-.2 0-.4.2-.4s.4-.3.4-.6.2-.6.4-.6.4-.3.4-.6.2-.6.5-.6c.4 0 .4-.1 0-.2-.3-.1-.3-.4.3-1 .4-.5.8-1.1.8-1.4 0-.3.3-1.1.7-1.8l.7-1.5c.3-1.5 1.2-3.5 1.4-3.4.2.1.2 0 .1-.4-.1-.3.1-.8.4-1.2.3-.3.6-1 .6-1.4s.2-.9.4-1c.2-.1.3-.6.1-1.1-.2-.6-.1-.8.2-.6.3.2.5-.2.5-1.1 0-.8.2-1.4.4-1.4s.4-.4.4-.8.2-1.1.4-1.5c.6-1.2 1.2-3.5 1.2-4.4 0-.5.2-.9.4-.9s.4-.5.4-1.2.2-1.2.4-1.2.4-.7.4-1.6c0-.9.2-1.6.4-1.6s.4-.7.4-1.6c0-.9.1-1.5.3-1.4.2.1.4-.6.4-1.7.1-1 .3-2 .5-2.3.2-.2.4-1.3.4-2.4 0-1.1.2-2.2.4-2.4.4-.4.7-2.4 1.3-10.2.4-5 .3-36.6-.1-38l-.4-1.2c-.3-.7-.6-2.8-.9-5.7-.1-1-.4-1.9-.5-1.9-.2 0-.4-.8-.5-1.7a19 19 0 00-1.9-7.2c-.2-.4-.4-1.2-.4-1.7 0-.6-.2-.9-.4-.8-.2.1-.4-.3-.4-1s-.2-1.3-.4-1.4c-.2-.1-.4-.8-.4-1.4s-.2-1.3-.4-1.4-.4-.6-.4-1-.2-.8-.4-.8-.4-.3-.4-.8-.2-.9-.4-1c-.2-.1-.3-.4-.2-.6.1-.2-.2-1-.6-1.9-.4-.8-.8-1.8-.8-2.2 0-.4-.4-1-.8-1.4-.4-.4-.7-.9-.6-1.1.1-.2 0-.3-.2-.3s-.3-.2-.2-.4c.1-.2 0-.4-.2-.4s-.3-.2-.2-.4c.1-.2 0-.6-.4-.8-.3-.3-.6-.7-.6-1 0-.3-.2-.6-.4-.6s-.4-.2-.4-.5-.3-1-.7-1.5c-.4-.5-.7-1.2-.8-1.5l-.7-1.1c-.4-.4-.5-.8-.4-1.1.2-.3.1-.3-.2-.1-.3.2-.5.1-.5-.1s-.5-1-1.2-1.7-1.2-1.5-1.2-1.8c0-.3-.2-.5-.4-.5s-.4-.1-.4-.3c.2-1-.1-1.5-.4-.9-.3.5-.4.4-.4-.3 0-.5-.3-1-.8-1.1-.4-.1-.8-.5-.8-.7a18 18 0 00-4.3-5.2c-.9-.9-1.7-1.8-1.7-2.1s-.1-.5-.3-.4c-.2.1-1.2-.8-2.3-1.9-3.7-3.7-4.5-4.3-5.5-4-.9.2-2.2 2.2-2.2 3.3 0 .3-.2.5-.4.3-.3-.2-1 1.9-.9 2.7 0 .2-.1.3-.2.3-.2 0-.6.6-.9 1.3-.3.7-.9 1.6-1.3 2.1-.4.4-.7 1.1-.7 1.4 0 .4-.4 1-.8 1.5a4 4 0 00-.8 1.3c0 .6-1.1 1.6-1.4 1.3-.2-.2-.2-.1-.2.1.2.5-3.4 5.8-3.8 5.5-.2-.1-.3.2-.3.6s-.1.8-.3.8-.5.4-.7.9c-.2.5-.6.9-.9.8-.3-.1-.4.1-.3.2.1.2-.2.8-.8 1.4-.5.6-1 1.2-1 1.4 0 .2-1.2 1.5-2.6 3a20.2 20.2 0 00-2.9 3.4c-.2 0-1.7 1.3-3.3 2.9a35 35 0 01-3.7 3.2 1 1 0 00-.7.9c0 .3-.2.6-.4.6-.4 0-1.5.8-3 2.2-.9.9-1.2 1-1.8 1-.2 0-.3.2-.2.4.1.2 0 .4-.4.4s-.5.2-.4.4c.1.2 0 .4-.3.4s-1.6.7-2.8 1.6c-1.2.9-2.3 1.5-2.4 1.4-.1-.1-.7.3-1.3.8-.6.6-1.2.9-1.4.8-.2-.1-.4-.1-.4.1 0 .5-3.1 2.1-4.1 2.1-.5 0-.7.1-.6.3.3.3-1.5 1.3-2.3 1.3-.3 0-.6.2-.7.4-.1.2-.6.4-1.2.5-.6 0-1 .2-.9.4.1.2-.1.3-.4.3-.6 0-1 .2-2.9 1.1-.5.3-1.3.5-1.9.5-.5 0-1.1.2-1.2.4-.1.2-.7.4-1.2.4s-1 .2-1 .4-.8.4-1.8.4c-1.1 0-1.7.2-1.6.4.1.2-.4.4-1.4.4-.9 0-1.6.2-1.6.4s-1.1.4-2.4.4a63.6 63.6 0 01-15 1.3 103.2 103.2 0 01-17.5-1.4c-4.2-.4-5.9-.7-5.9-1.1 0-.2-.6-.4-1.3-.4-1.3 0-4-.8-4.6-1.3-.2-.2-.7-.3-1.3-.3a17.2 17.2 0 01-6.4-3.1c0 .5-2.4-.9-2.4-1.3 0-.2-.3-.4-.6-.4s-.9-.4-1.2-.9c-.3-.5-.7-.9-.8-.8l-.7.1c-.4 0-.4-.1 0-.2.5-.2-1.1-2.1-1.8-2.1-.6 0-3.3-4.4-3.3-5.4 0-.3-.1-.6-.3-.6s-.4-.9-.4-1.9c-.1-1-.3-2.1-.5-2.3-.5-.6-.5-1.8.1-1.8.4 0 .4-.1 0-.4-.4-.2-.4-.4-.1-.6.3-.2.4-1.6.4-3.6 0-1.8.2-3.5.4-3.6s.4-.6.4-1.1c0-.9.6-3 1.4-4.9.3-.7.4-1.3.3-1.5-.1-.2 0-.3.2-.3s.4-.4.4-.8.2-.8.4-.8.4-.3.4-.6c0-.6.8-2.2 1.3-2.6.2-.1.5-.7.8-1.4a14 14 0 013.2-4.6c.2 0 .3-.4.3-.8s.2-.7.3-.6c.2.1.5-.2.8-.8.2-.5.6-1 .9-1 .2 0 .4-.3.4-.7 0-.4.6-1.2 1.2-1.8.7-.6 1.1-1.3 1-1.5-.1-.2-.1-.4.2-.4.2 0 .4-.2.4-.5s.3-.7.7-1.1l1.7-2 1.7-2.2c.4-.4.7-.9.7-1.1 0-.2.2-.2.4-.1s.4.1.4-.1c-.1-.8.1-1.4.4-1.1.3.2.4.1.4-.8l.4-.7c1.6-1.9 3.1-4.2 2.9-4.4-.1-.1 0-.2.2-.2.3 0 .5-.2.5-.5s.3-.9.7-1.3c.6-.6 3-5.1 3.1-5.8a8 8 0 011.4-2.8c.2 0 .3-.5.2-1-.1-.6.1-1.1.4-1.3.3-.2.6-.9.7-1.6l.6-2.3.4-2c0-.6.2-.9.4-.8.2.2.4-.5.4-1.6s.2-1.8.4-1.6c.2.2.4-.5.4-1.6 0-1 .2-1.8.4-1.8s.4-.9.4-2 .2-1.9.3-1.8c.2.1.4-1.3.4-3.1s.2-3.4.5-3.4c.5-.2.5-25.7 0-25.7-.2 0-.4-1.1-.4-2.6 0-1.4-.2-2.6-.4-2.7-.2-.1-.4-1.2-.5-2.4-.1-1.3-.2-2.2-.4-2.1-.2.1-.3-.6-.3-1.6s-.2-1.9-.4-2-.4-.8-.4-1.4-.2-1.5-.4-1.9a20 20 0 01-1.6-5.6c0-.5-.2-.9-.4-.9s-.3-.2-.2-.4c.1-.2.1-.4-.2-.4-.2 0-.3-.4-.2-.8.1-.4 0-.7-.2-.6-.2.1-.4-.1-.4-.6-.1-1.2-.1-1.3-.8-2.4-.3-.5-.8-1.5-1-2.2l-1-2.6c-.3-.8-.6-1.5-.8-1.6l-.8-1.6-.8-1.6c-.6-.4-1.5-2.7-1.3-3 .2-.2.1-.2-.2 0-.4.3-.7-.4-.6-1.4 0-.2-.3-.4-.8-.5-.5-.2-.8-.6-.8-1.2s-.3-1-.8-1.2c-.4-.1-.8-.5-.8-.9 0-.3-.4-1-.9-1.4-.5-.4-.6-.7-.4-.7.3 0-.1-.5-.7-1.2-.7-.6-1.2-1.5-1.2-1.8 0-.4-.2-.6-.4-.4-.2.1-.5-.2-.6-.8-.1-.5-.5-1-.9-1-.3 0-.6-.2-.5-.5.1-.5-.2-.9-3.2-4.1-.8-.9-1.2-1.4-.9-1.2.3.2.1-.2-.6-.9s-1.4-1.3-1.7-1.3c-.3 0-.6-.3-.7-.6-.1-.3-.5-.6-.8-.6-.3 0-.5-.2-.3-.4.1-.2 0-.4-.2-.4s-.3-.2-.2-.4c.1-.2.1-.4-.1-.4-.8.1-1.3-.1-1.3-.7 0-.3-.3-.7-.7-.9-.4-.1-1.4-.9-2.2-1.8-.8-.8-1.5-1.4-1.5-1.2 0 .2-.2 0-.4-.4s-.7-.7-1.1-.7c-.4 0-.5-.1-.4-.2.3-.3-2.3-2.1-2.9-2.1-.2 0-.6-.4-1-.8s-1-.8-1.3-.8c-.3 0-.4-.2-.3-.5.2-.3.1-.4-.4-.2-.4.1-.9 0-1.2-.3s-.8-.6-1-.6c-.2 0-.7-.4-1-.9-.4-.5-.8-.8-1.2-.6-.3.1-.6.1-.6-.1s-.4-.5-1-.6c-.6-.1-.9-.4-.7-.7.2-.3-.1-.3-.6-.2-.5.1-.9 0-1.1-.4a.8.8 0 00-.7-.5c-.3.1-1.1-.2-1.8-.6-.7-.4-1.7-.7-2.1-.7-.5 0-.7-.2-.6-.4.1-.2-.1-.4-.5-.4-.9 0-2.9-.9-2.9-1.3 0-.2-.5-.3-1-.3s-1-.2-1-.5c0-.4-.1-.4-.2 0 .5.6 0 .5-1 0-.8-.4-1.9-.8-2.5-.8-.6 0-1.3-.2-1.5-.4-.2-.2-1-.4-1.8-.5-.8-.1-1.5-.2-1.6-.4-.1-.1-.8-.3-1.6-.3s-1.6-.2-1.8-.4c-.4-.3-2.4-.7-7-1.2m-85.1 63c6-3 14.7-.2 17.5 5.6l.9 1.9c.2.4.4 2.2.4 4.1s-.2 3.7-.4 4.1l-.9 1.9c-1 2.2-4.4 5.2-6.9 6.1-6.2 2.3-13.6-.5-16.2-6.1l-.9-1.9c-.2-.4-.4-2.2-.4-4.1s.2-3.7.4-4.1l.9-1.8a14 14 0 015.6-5.7"/>
	<path fill="#666664" d="M103.2 63.2c-8.7-2.7-17.9 6.7-15 15.2 4.1 11.8 19.6 11.9 23.4.2a12 12 0 00-8.4-15.4"/>
	<path fill="#c1a464" d="M105.3 63.6C93.9 57.9 82.1 72 89.7 82.4c6.3 8.6 21.1 5.8 22.6-4.3.2-1.3.1-1.2-.5.6-4.6 13-24.1 10.1-24.1-3.7 0-14.3 19.7-16.5 24.3-2.8.3.9.4 1 .4.4.1-2.8-3.4-7.2-7.1-9m7.4 11.4c0-.9-.1-1.3-.2-.9s-.1 1.1 0 1.6c.2.5.2.2.2-.7"/>
	<path fill="#fc9c40" d="M64.2 89.9L62.7 88c-.5 0 5.1 7.3 8.6 11.2l.9 1-.7-1-3.3-4.2a64.1 64.1 0 01-4-5.1M77.8 105c-1.6-1.4-1.7-1.3-.4.2.6.7 1.2 1.1 1.3 1 .2-.1-.3-.6-.9-1.2m3 2.6c-1.5-1.3-1.8-1.5-1.4-.9.1.2.8.8 1.5 1.2 1.3 1 1.3 1-.1-.3m3.9 2.8c-1.6-1.1-3.3-1.9-2.2-1a27 27 0 004.2 2.6c0-.1-.8-.9-2-1.6m3.6 2.2c-1.2-.9-1.4-.7-.3.2 1.1.9 13.2 7.1 12.6 6.5l-6-3.3c-3-1.5-5.8-3.1-6.3-3.4m19.6 11.6a18.4 18.4 0 00-2.5-2.2c-.2 0 .5.8 1.5 1.7 1 .9 2 2.1 2.3 2.5.2.4.6.7.7.5.1-.1-.8-1.3-2-2.5m4.3 8.8c-.2-.8-.4-1.4-.5-1.3-.1.1-.1.9.1 1.7.1.8.4 1.4.5 1.3.1-.1.1-.9-.1-1.7m.2 6.2c0-.5 0-.5-.4 0-.2.3-.4 1-.4 1.4v.8l.3-.8a3 3 0 00.5-1.4m-2.1 5c.8-1.5.5-1.3-.9.8-.6.9-.8 1.3-.4 1s1-1.1 1.3-1.8m-3.7 4.6c1.1-1.1 1.9-2 1.7-2s-1 .8-2 1.9a66.2 66.2 0 01-10.2 8.3c-2.8 1.9-3.8 2.7-2 1.8 2.7-1.5 9.5-6.9 12.5-10"/>
	<path fill="#fcb44c" d="M67.6 93.8c-.7-1-1.5-1.8-1.6-1.8-.2 0 .3.8 1.1 1.8 1.9 2.3 2.2 2.3.5 0m2.8 3.5c-.5-.7-1.1-1.3-1.3-1.3-.5 0-.4.2 1 1.4l1.3 1.2-1-1.3m4.8 5a45 45 0 00-3.8-3.5 25 25 0 005.2 5.2c1.4 1.2.9.6-1.4-1.7m7.9 6.5a9 9 0 00-1.9-1.2c-.3 0 2 1.9 2.9 2.4 1.4.8.8 0-1-1.2m4.1 2.8c-1-.8-1.6-1-1.6-.6 0 .1.6.5 1.3.8l1.3.6-1-.8m10.9 5.8c-1.7-.9-3-1.3-2.5-.9.4.4 4.4 2.2 4.4 2.1l-1.9-1.2m7.3 4.4c-1.2-1.1-1.4-1.2-1.4-.9 0 .1.6.6 1.3 1l1.3.9-1.2-1m2.9 2.3c-1.1-1.2-1.4-1.5-1.4-1.2l1.3 1.3 1.3 1.2-1.2-1.3m3.1 4.9c-.3-.8-.7-1.4-.8-1.4-.1 0 0 .5.3 1.1l1 2.9c.5 1.7.5 1.7.3.3-.1-.8-.5-2.1-.8-2.9m1.3 7.8c0-1.4-.1-2-.2-1.3v2.6c.1.7.2.1.2-1.3m-.3 3.5c0-.3-.1-.3-.3.1l-1 2.1-.6 1.5c.4 0 2-3.1 1.9-3.7m-2 4.4a67.9 67.9 0 01-8.2 8.5 53 53 0 008.2-8.5m-17.2 14.8l1-.8-1.1.6-4.7 2.6c-.5.3-.8.6-.7.7.1.1.7-.1 1.3-.5l2.1-1.3c.7-.2 1.6-.8 2.1-1.3m179.6 64.9c-1.4-.5-1.9-.5-1.2 0 .3.2 1 .4 1.4.4.7-.1.7-.1-.2-.4"/>
	<path fill="#f5bc5a" d="M73.7 100.7l-1.5-1.5c-.3 0 0 .3 1.4 1.6l1.5 1.4-1.4-1.5"/>
	<path fill="#e4bc64" d="M93 64.3c.2-.2 0-.2-.4.1-.4.2-1.2.8-1.6 1.3-.7.9 0 .4 2-1.4m19.6 7.1c-.4-1.1-.5-.5-.2 1 .2.9.3 1.1.4.5l-.2-1.5M88 71.1c0-.2-.2-.2-.4-.1s-.4.6-.4 1.1c.1.9.7 0 .8-1m24.8 6.1c0-1.3-.2-1-.5.8-.2 1-.1 1.2.1.8.3-.3.4-1 .4-1.6m-21.1 7.3c-1.3-1.2-1.6-1.2-.5 0 .5.5 1.4 1.2 2.2 1.6 1.3.7 1.3.7.3 0l-2-1.6m14.7 1.8l-1.6.4c-.9.3-1.5.7-1.4.8.2.2 3-1 3-1.2m-5.5 1.6c.5-.1.1-.2-.9-.2s-1.4.1-.9.2h1.8M400 0"/>
</svg>