<svg xmlns="http://www.w3.org/2000/svg" viewBox="-100 -300 600 600">>
  <path fill="#fc8c33" d="M 390.157 199.004 C 389.157 200.704 388.557 200.604 386.357 198.404 C 385.757 197.804 385.057 197.304 384.757 197.304 C 384.457 197.304 383.957 196.904 383.657 196.504 C 383.357 196.104 382.757 195.704 382.357 195.704 C 381.957 195.704 381.657 195.504 381.657 195.304 C 381.657 195.104 381.457 194.904 381.157 195.004 C 380.857 195.104 379.957 194.704 379.057 194.204 C 378.157 193.704 377.257 193.404 377.157 193.604 C 377.057 193.704 376.957 193.704 376.957 193.504 C 376.957 193.304 376.057 192.904 374.957 192.604 C 373.857 192.304 372.857 191.904 372.757 191.704 C 372.657 191.504 372.057 191.404 371.357 191.404 C 370.657 191.404 370.057 191.204 369.957 191.004 C 369.857 190.804 369.257 190.604 368.657 190.604 C 368.057 190.604 367.357 190.404 367.157 190.204 C 366.957 190.004 365.957 189.804 364.957 189.704 C 363.957 189.604 362.957 189.504 362.757 189.304 C 362.557 189.104 360.457 189.004 358.257 188.904 C 356.057 188.904 354.257 188.704 354.357 188.504 C 354.457 188.304 351.057 188.104 346.557 188.104 C 341.457 188.104 338.557 188.004 338.557 187.704 C 338.557 187.504 337.757 187.304 336.757 187.304 C 335.757 187.304 334.957 187.104 334.957 186.904 C 334.957 186.704 334.657 186.504 334.357 186.504 C 332.757 186.504 328.557 183.504 328.557 182.304 C 328.557 182.004 328.357 181.704 328.057 181.604 C 326.957 181.204 327.157 172.304 328.357 170.504 C 329.657 168.504 331.757 166.304 332.257 166.404 C 332.457 166.504 332.657 166.204 332.657 165.904 C 332.657 165.604 332.857 165.404 333.057 165.504 C 333.257 165.604 333.457 165.504 333.457 165.304 C 333.457 164.804 335.757 162.504 336.357 162.504 C 336.557 162.504 336.557 162.304 336.457 162.104 C 336.357 161.904 336.457 161.704 336.857 161.704 C 337.157 161.704 337.457 161.504 337.457 161.304 C 337.457 161.104 337.857 160.904 338.257 160.904 C 338.657 160.904 339.057 160.704 339.057 160.504 C 339.057 159.904 342.357 156.904 342.957 156.904 C 343.157 156.904 343.557 156.504 343.857 156.104 C 344.157 155.704 344.657 155.304 344.957 155.304 C 345.257 155.304 345.957 154.904 346.457 154.304 C 346.957 153.804 347.757 153.204 348.257 153.104 C 348.657 153.004 349.057 152.704 349.057 152.504 C 349.057 152.304 349.557 152.004 350.257 151.704 C 350.957 151.404 351.457 151.004 351.457 150.904 C 351.457 150.704 351.657 150.504 351.857 150.504 C 352.257 150.504 354.457 149.104 355.057 148.504 C 356.138 147.777 357.317 147.205 358.557 146.804 C 358.657 146.904 359.057 146.504 359.557 146.104 C 360.057 145.704 360.657 145.304 360.957 145.304 C 361.257 145.304 361.457 145.204 361.457 145.004 C 361.457 144.804 362.057 144.404 362.857 144.104 C 363.657 143.804 364.257 143.404 364.257 143.204 C 364.257 143.004 364.557 142.904 364.857 142.904 C 365.157 142.904 365.457 142.704 365.457 142.504 C 365.457 142.304 365.857 142.104 366.257 142.104 C 366.657 142.104 367.057 141.904 367.057 141.704 C 367.057 141.504 367.357 141.304 367.857 141.304 C 368.257 141.304 368.657 141.204 368.757 141.004 C 368.957 140.504 372.257 138.904 373.057 138.904 C 373.657 138.904 373.657 138.804 373.157 138.504 C 372.657 138.204 372.657 138.104 373.257 138.104 C 373.657 138.104 374.557 137.704 375.357 137.304 C 376.157 136.904 377.057 136.504 377.357 136.504 C 377.657 136.504 377.957 136.404 377.957 136.204 C 377.957 136.004 378.557 135.704 379.257 135.404 L 382.957 133.704 C 384.257 133.104 385.657 132.504 386.057 132.504 C 386.457 132.504 386.757 132.304 386.757 132.104 C 386.757 131.904 386.957 131.704 387.157 131.704 L 388.957 131.104 L 390.657 130.504 L 391.857 129.904 C 392.357 129.604 392.957 129.304 393.257 129.404 C 393.757 129.504 394.057 129.404 396.157 128.604 C 398.057 127.904 399.857 127.404 400.657 127.404 C 401.157 127.404 401.557 127.204 401.557 127.004 C 401.557 126.804 402.057 126.604 402.757 126.604 C 403.457 126.604 403.957 126.404 403.957 126.204 C 403.957 126.004 404.857 125.804 405.957 125.804 C 407.057 125.804 407.957 125.604 407.957 125.404 C 407.957 124.904 414.657 124.904 414.957 125.404 C 415.658 125.998 416.43 126.502 417.257 126.904 C 429.957 133.504 439.957 144.204 439.957 151.004 C 439.957 154.004 438.157 160.004 436.857 161.404 L 435.957 162.604 C 435.057 164.304 431.557 166.604 423.157 170.804 C 420.034 172.24 417.025 173.911 414.157 175.804 C 413.057 175.804 404.757 182.504 400.457 186.904 C 396.635 190.59 393.186 194.643 390.157 199.004" transform="matrix(-1, 0, 0, -1, 767.291321, 325.207306)"></path>
  <path fill="#fbcc64" d="M 157.668 436.837 C 144.931 437.303 132.179 437.07 119.468 436.137 C 118.468 436.137 117.568 435.937 117.468 435.737 C 117.368 435.537 116.468 435.337 115.668 435.337 C 114.868 435.337 114.068 435.137 114.068 434.937 C 114.068 434.737 113.268 434.537 112.268 434.537 C 111.168 434.537 110.568 434.337 110.668 434.137 C 110.768 433.937 110.368 433.737 109.668 433.737 C 108.968 433.737 108.368 433.537 108.268 433.337 C 108.168 433.137 107.568 432.937 107.068 432.937 C 106.568 432.937 105.968 432.737 105.868 432.537 C 105.768 432.337 105.168 432.137 104.668 432.137 C 104.168 432.137 103.668 431.937 103.668 431.737 C 103.668 431.537 103.168 431.337 102.568 431.337 C 101.968 431.337 100.968 430.937 100.468 430.537 C 99.968 430.137 99.168 429.737 98.768 429.737 C 98.368 429.737 97.968 429.537 97.868 429.337 C 97.768 429.137 97.368 428.937 97.068 428.937 C 96.268 428.937 93.268 427.637 93.268 427.237 C 93.268 427.037 93.068 426.937 92.668 426.937 C 92.368 426.937 91.868 426.637 91.568 426.337 C 91.268 426.037 90.868 425.737 90.668 425.737 C 89.868 425.837 88.468 425.237 88.568 424.937 C 88.668 424.737 87.668 424.037 86.468 423.437 C 85.168 422.737 83.868 421.837 83.368 421.337 C 82.968 420.837 82.368 420.537 82.068 420.537 C 81.768 420.537 81.568 420.337 81.568 420.137 C 81.568 419.937 81.368 419.737 81.168 419.737 C 80.968 419.737 80.268 419.237 79.568 418.537 C 74.146 414.054 69.065 409.174 64.368 403.937 C 64.168 404.037 63.968 403.937 63.968 403.637 C 63.968 403.337 63.568 402.737 63.168 402.237 C 62.768 401.737 62.368 401.237 62.368 400.937 C 62.368 400.637 62.168 400.537 61.968 400.537 C 61.768 400.537 61.568 400.237 61.568 399.937 C 61.568 399.637 61.368 399.437 61.168 399.537 C 60.968 399.637 60.768 399.537 60.768 399.137 C 60.768 398.837 60.568 398.537 60.368 398.537 C 60.168 398.537 59.968 398.137 59.968 397.737 C 59.968 397.337 59.868 396.937 59.668 396.937 C 59.468 396.937 59.068 396.537 58.768 395.937 C 58.468 395.337 58.168 395.037 58.068 395.137 C 57.868 395.337 56.768 393.437 56.768 392.837 C 56.768 392.437 56.368 391.937 55.168 390.637 L 54.468 389.437 C 54.468 389.137 54.068 388.637 53.768 388.237 C 53.368 387.937 53.168 387.137 53.168 386.637 C 53.168 386.137 52.968 385.637 52.768 385.637 C 52.568 385.637 52.468 385.337 52.468 385.037 C 52.468 384.737 52.268 384.437 52.068 384.437 C 51.868 384.437 51.668 384.137 51.668 383.637 C 51.668 383.237 51.468 382.737 51.268 382.637 C 51.068 382.537 50.868 382.037 50.868 381.637 C 50.868 381.237 50.768 380.837 50.568 380.837 C 50.168 380.837 49.268 378.937 49.268 378.137 C 49.268 377.837 49.068 377.637 48.968 377.637 C 48.868 377.637 48.368 376.837 48.068 375.937 C 47.768 375.037 47.468 374.137 47.268 374.037 C 46.968 373.737 46.068 371.037 46.068 370.337 C 46.068 369.937 45.868 369.637 45.668 369.637 C 45.468 369.637 45.268 369.137 45.268 368.637 C 45.268 368.037 45.068 367.637 44.868 367.637 C 44.668 367.637 44.468 367.137 44.468 366.637 C 44.468 366.037 44.268 365.637 44.068 365.637 C 43.868 365.637 43.668 365.037 43.668 364.237 C 43.668 363.437 43.568 362.937 43.368 363.037 C 43.168 363.137 42.968 362.737 42.968 362.237 C 42.968 361.637 42.668 361.037 42.468 360.737 C 42.268 360.437 42.068 359.537 41.968 358.637 C 41.868 357.737 41.768 356.937 41.568 356.937 C 41.368 356.937 41.268 356.437 41.268 355.737 C 41.268 355.137 41.168 354.437 40.968 354.337 C 40.568 354.037 40.368 350.137 40.768 350.137 C 40.968 350.137 42.468 348.337 44.068 346.137 C 51.965 335.484 62.328 326.906 74.268 321.137 L 81.668 317.337 C 91.496 312.236 94.28 299.466 87.468 290.737 C 85.868 288.537 81.468 284.437 79.468 283.037 L 78.468 282.237 C 78.068 281.737 73.268 278.637 72.868 278.637 C 72.668 278.637 72.468 278.437 72.468 278.237 C 72.468 278.037 72.168 277.837 71.868 277.837 C 71.568 277.837 71.268 277.737 71.268 277.537 C 71.268 277.337 70.668 276.937 69.868 276.637 C 69.068 276.337 68.468 275.937 68.468 275.837 C 68.468 275.737 67.868 275.337 67.068 275.037 C 65.368 274.337 65.268 273.937 66.868 272.637 C 67.568 272.137 68.068 271.337 68.068 270.937 C 68.068 270.537 68.168 270.237 68.368 270.237 C 68.868 270.237 70.068 267.937 69.768 267.637 C 69.568 267.437 69.668 267.437 69.968 267.637 C 70.268 267.837 70.468 267.737 70.468 267.637 C 70.568 266.537 70.868 265.837 71.368 265.337 C 71.768 264.937 71.868 264.537 71.768 264.337 C 71.668 264.137 71.768 263.937 72.068 263.937 C 72.368 263.937 72.468 263.837 72.268 263.637 C 72.168 263.537 72.168 263.137 72.468 262.837 C 72.768 262.537 72.768 262.337 72.568 262.337 C 72.368 262.337 72.368 262.237 72.668 262.037 C 73.268 261.637 74.468 258.337 74.268 257.937 C 74.168 257.737 74.168 257.537 74.368 257.537 C 74.568 257.537 74.868 257.037 74.968 256.437 L 75.768 253.137 C 76.068 251.937 76.368 250.437 76.368 249.837 C 77.17 247.114 77.475 244.268 77.268 241.437 C 77.268 240.837 77.368 240.337 77.568 240.337 C 77.668 240.337 77.868 239.837 77.868 239.337 C 77.968 238.637 77.768 238.437 77.468 238.637 C 77.068 238.837 77.068 238.837 77.468 238.337 C 78.068 237.737 78.168 236.337 77.568 236.337 C 77.368 236.337 77.168 235.237 77.168 233.937 C 77.168 232.437 77.068 231.637 76.768 231.737 C 76.568 231.837 76.368 231.437 76.368 230.537 C 76.368 229.737 76.268 229.137 76.068 229.137 C 75.868 229.137 75.568 228.737 75.268 228.337 C 74.968 227.837 74.868 227.637 75.168 227.737 C 75.468 227.937 75.468 227.737 75.068 227.237 C 74.768 226.837 74.368 226.537 74.168 226.637 C 73.968 226.737 73.868 226.737 74.068 226.537 C 74.468 226.137 73.368 224.337 71.368 222.237 C 70.968 221.737 70.568 221.237 70.668 221.037 C 70.768 220.837 70.568 220.737 70.368 220.737 C 70.168 220.737 70.068 220.537 70.168 220.337 C 70.268 220.137 70.168 219.937 69.768 219.937 C 69.351 219.914 68.992 219.635 68.868 219.237 C 68.768 218.837 67.768 217.737 66.668 216.637 C 65.668 215.637 64.868 214.637 64.968 214.537 C 65.068 214.437 64.968 214.337 64.768 214.337 C 64.268 214.337 62.568 212.737 61.368 210.937 C 60.968 210.337 60.468 209.937 60.368 210.037 C 60.268 210.137 59.668 209.537 59.168 208.637 C 58.668 207.837 58.068 207.137 57.968 207.237 C 57.868 207.337 57.468 207.137 57.268 206.837 C 56.968 206.537 56.868 206.237 57.068 206.237 C 57.268 206.237 57.068 206.037 56.668 205.737 C 56.268 205.437 56.068 205.037 56.168 204.737 C 56.268 204.537 56.168 204.237 55.868 204.137 C 55.568 204.037 54.968 203.237 54.568 202.537 C 54.168 201.737 53.768 201.137 53.568 201.137 C 53.368 201.137 53.268 200.937 53.268 200.637 C 53.268 200.337 52.768 199.637 52.268 198.937 C 51.668 198.237 50.968 197.037 50.668 196.237 C 50.368 195.437 49.868 194.737 49.668 194.737 C 49.468 194.737 49.268 194.337 49.268 193.937 C 49.268 193.437 49.068 193.237 48.868 193.337 C 48.668 193.437 48.468 193.137 48.468 192.537 C 48.468 191.937 48.268 191.637 48.068 191.737 C 47.868 191.837 47.668 191.637 47.568 191.137 C 47.468 189.837 47.468 189.637 47.168 189.237 C 46.968 189.037 46.868 188.637 46.868 188.337 C 46.868 188.037 46.468 187.237 46.068 186.737 C 45.668 186.237 45.268 185.237 45.268 184.737 C 45.268 184.137 44.968 183.137 44.668 182.437 C 44.268 181.737 43.968 180.437 43.768 179.537 C 43.668 178.637 43.368 178.037 43.168 178.137 C 42.968 178.237 42.868 177.637 42.868 176.837 C 42.868 175.937 42.768 175.137 42.568 175.037 C 42.268 174.737 42.268 174.537 42.168 171.837 C 42.168 171.037 41.968 170.437 41.768 170.537 C 41.568 170.637 41.368 169.237 41.368 167.437 C 41.268 165.637 41.068 163.937 40.868 163.737 C 40.368 163.137 40.368 139.537 40.768 139.537 C 40.968 139.537 41.168 138.637 41.168 137.437 C 41.268 136.337 41.468 135.237 41.768 135.037 C 42.168 134.837 42.168 134.737 41.768 134.737 C 41.468 134.737 41.368 134.537 41.668 134.037 C 42.368 132.737 42.968 130.437 42.968 129.237 C 42.968 128.537 43.068 127.937 43.268 127.937 C 43.568 127.937 43.768 127.037 43.868 125.237 C 43.868 124.937 44.068 124.837 44.268 124.937 C 44.568 125.137 44.768 123.537 44.668 122.537 C 44.668 122.337 44.768 122.337 45.068 122.437 C 45.268 122.637 45.468 122.237 45.468 121.437 C 45.468 120.737 45.668 120.237 45.868 120.237 C 46.068 120.237 46.268 119.937 46.268 119.637 C 46.268 119.337 46.668 118.337 47.068 117.437 C 47.468 116.537 47.868 115.537 47.868 115.037 C 47.868 114.537 48.068 114.337 48.268 114.437 C 48.468 114.537 48.668 114.237 48.668 113.637 C 48.668 113.037 48.868 112.737 49.068 112.837 C 49.268 112.937 49.468 112.637 49.468 112.137 C 49.468 111.637 49.868 110.837 50.268 110.337 C 50.668 109.837 51.068 109.237 51.068 108.837 C 51.068 108.537 51.168 108.237 51.368 108.237 C 51.668 108.237 52.668 106.337 52.668 105.737 C 52.668 105.537 53.068 105.037 53.468 104.537 C 53.868 104.037 54.168 103.437 54.068 103.137 C 53.968 102.837 54.168 102.637 54.468 102.637 C 54.868 102.637 54.968 102.437 54.868 102.037 C 54.768 101.637 54.768 101.537 55.068 101.637 C 55.268 101.737 55.468 101.537 55.468 101.137 C 55.468 100.737 55.568 100.237 55.768 100.237 L 57.468 98.137 C 58.057 97.239 58.691 96.371 59.368 95.537 C 59.168 95.537 59.368 95.237 59.768 94.837 C 60.968 93.537 61.868 92.337 61.868 92.037 C 61.868 91.837 62.368 91.137 63.068 90.437 C 63.768 89.737 64.268 88.937 64.268 88.737 C 64.268 88.537 64.468 88.437 64.668 88.537 C 64.868 88.637 65.068 88.537 65.068 88.137 C 65.068 87.837 65.268 87.537 65.468 87.537 C 65.668 87.537 65.868 87.337 65.868 87.137 C 65.868 86.937 66.368 86.237 66.868 85.737 C 67.468 85.137 68.168 84.337 68.468 83.737 C 68.768 83.237 69.268 82.837 69.468 82.937 C 69.668 83.037 69.868 82.937 69.868 82.737 L 69.968 81.837 C 69.968 81.537 70.268 81.337 70.568 81.337 C 70.868 81.337 71.168 81.037 71.168 80.737 C 71.168 80.437 71.368 80.137 71.668 80.237 C 71.968 80.337 72.068 80.137 71.968 79.937 C 71.868 79.737 72.168 79.337 72.668 78.937 C 73.168 78.637 75.368 76.537 77.668 74.437 C 79.836 72.019 82.286 69.87 84.968 68.037 C 85.368 67.637 85.668 67.237 85.468 66.937 C 85.368 66.737 85.468 66.637 85.668 66.837 C 85.968 67.037 86.668 66.537 87.468 65.737 C 88.168 64.937 88.868 64.337 89.068 64.337 C 89.168 64.337 89.768 63.937 90.368 63.337 C 90.968 62.837 91.668 62.337 91.868 62.337 C 92.068 62.337 92.568 61.937 92.868 61.537 C 93.168 61.137 93.768 60.737 94.168 60.737 C 94.568 60.737 94.768 60.537 94.668 60.337 C 94.568 60.137 94.868 59.937 95.368 59.937 C 96.068 59.937 96.168 59.837 95.668 59.537 C 95.168 59.237 95.268 59.137 95.968 59.137 C 96.468 59.137 96.868 58.937 96.868 58.737 C 96.868 58.537 97.068 58.337 97.368 58.337 C 97.668 58.337 98.468 57.837 99.268 57.137 C 100.068 56.437 100.868 55.937 101.168 55.937 C 101.468 55.937 101.668 55.737 101.668 55.537 C 101.668 55.337 101.968 55.137 102.368 55.137 C 102.768 55.137 103.268 54.837 103.568 54.437 L 104.468 53.637 L 105.368 53.537 C 105.568 53.537 105.668 53.337 105.568 53.137 C 105.468 52.937 105.668 52.737 106.168 52.737 C 106.668 52.737 106.868 52.537 106.768 52.337 C 106.668 52.137 106.768 51.937 107.168 51.937 C 107.568 51.937 108.568 51.437 109.568 50.737 C 110.253 50.197 111.033 49.79 111.868 49.537 C 112.168 49.537 112.668 49.237 112.968 48.937 C 113.268 48.637 113.568 48.337 113.668 48.437 C 114.068 48.537 116.968 47.137 117.868 46.337 C 118.268 45.937 118.468 45.937 118.368 46.237 C 118.168 46.537 118.668 46.337 119.368 45.937 C 120.068 45.537 121.068 45.137 121.468 45.137 C 121.868 45.137 122.068 44.937 121.968 44.737 C 121.868 44.537 121.968 44.337 122.368 44.337 C 122.668 44.337 123.368 44.137 123.868 43.837 C 125.768 42.837 126.168 42.737 126.968 42.737 C 127.468 42.737 127.668 42.637 127.568 42.437 C 127.468 42.237 127.868 42.037 128.468 42.037 C 129.068 42.037 129.568 41.837 129.768 41.637 C 129.868 41.437 130.468 41.237 130.968 41.237 L 132.168 40.837 L 133.568 40.437 C 134.268 40.337 134.868 40.137 134.868 39.937 C 134.968 39.737 135.568 39.537 136.368 39.537 C 137.068 39.537 137.868 39.337 137.968 39.137 C 138.068 38.937 138.768 38.737 139.368 38.737 C 139.968 38.737 140.568 38.637 140.568 38.437 C 140.568 37.537 241.168 37.337 242.268 38.337 C 242.668 38.637 243.068 38.737 243.168 38.637 C 243.268 38.537 243.168 38.337 242.868 38.337 C 242.568 38.337 242.468 38.237 242.568 38.037 C 242.668 37.937 243.068 37.937 243.368 38.237 C 243.668 38.437 245.068 38.737 246.568 38.737 C 248.068 38.737 249.168 38.937 249.068 39.137 C 248.968 39.337 250.068 39.437 251.468 39.437 C 253.168 39.437 254.068 39.537 253.868 39.837 C 253.668 40.137 256.868 40.537 258.168 40.237 C 258.368 40.237 258.368 40.337 258.268 40.637 C 258.068 40.937 258.668 41.037 259.868 41.037 C 261.068 41.037 261.668 41.237 261.668 41.537 C 261.668 41.837 261.768 41.837 262.068 41.437 C 262.368 41.037 262.468 41.037 262.468 41.337 C 262.468 41.637 263.068 41.837 263.868 41.837 C 264.668 41.837 265.268 42.037 265.268 42.237 C 265.268 42.437 266.068 42.637 267.068 42.637 C 268.068 42.637 268.868 42.837 268.868 43.037 C 268.868 43.237 269.168 43.437 269.568 43.437 C 270.368 43.437 272.768 44.137 273.768 44.637 C 274.168 44.837 274.968 45.037 275.668 45.037 C 276.368 45.037 276.868 45.237 276.868 45.437 C 276.868 45.737 280.068 46.437 280.768 46.237 C 280.868 46.237 281.168 46.337 281.268 46.637 C 281.468 46.937 281.768 47.137 282.068 47.237 C 283.668 47.537 285.168 48.037 285.968 48.637 C 286.468 49.037 286.968 49.237 287.068 49.137 C 287.368 48.937 289.568 49.537 289.568 49.837 C 289.568 50.037 289.668 50.137 289.868 50.137 C 290.068 50.137 290.668 50.237 291.268 50.537 C 291.738 50.782 292.244 50.951 292.768 51.037 L 294.168 51.637 C 294.768 51.937 295.168 52.137 295.168 51.937 C 295.168 51.737 295.368 51.837 295.468 52.137 C 295.668 52.437 296.168 52.637 296.668 52.737 C 297.168 52.737 297.368 52.937 297.268 53.137 C 297.068 53.437 298.068 53.637 298.868 53.537 C 299.068 53.537 299.068 53.637 298.968 53.937 C 298.768 54.337 299.568 54.537 300.468 54.437 C 300.668 54.437 300.768 54.537 300.768 54.837 C 300.768 55.137 300.968 55.237 301.168 55.237 C 301.668 55.237 304.068 56.837 304.268 57.337 C 304.368 57.537 304.768 57.637 305.168 57.637 C 305.568 57.637 305.968 57.837 305.968 58.037 C 305.968 58.237 306.368 58.437 306.968 58.437 C 307.568 58.437 308.168 58.737 308.468 59.037 L 310.368 60.337 L 311.968 61.237 C 312.568 61.937 314.868 63.337 314.568 62.837 C 314.368 62.537 314.568 62.637 314.968 63.037 C 315.368 63.437 315.768 63.837 315.968 63.737 C 316.168 63.637 316.368 63.837 316.368 64.137 C 316.368 64.437 316.468 64.537 316.568 64.337 C 316.668 64.137 317.168 64.537 317.668 64.937 C 318.168 65.437 319.168 66.137 320.068 66.637 C 320.868 67.037 321.568 67.537 321.568 67.737 C 321.568 67.937 321.768 67.937 321.968 67.837 C 322.168 67.737 322.368 67.837 322.368 68.137 C 322.368 68.437 322.868 68.937 323.368 69.137 C 323.968 69.437 324.468 69.837 324.568 70.237 C 324.668 70.537 324.968 70.837 325.268 70.837 C 325.568 70.837 326.268 71.337 326.968 72.037 C 327.668 72.737 328.568 73.237 328.968 73.237 C 329.568 73.237 329.568 73.337 329.068 73.637 C 328.568 73.937 328.668 74.037 329.368 74.037 C 329.868 74.037 330.168 74.237 330.068 74.437 C 329.968 74.637 330.168 74.837 330.468 74.837 C 330.868 74.837 331.068 74.937 330.868 75.137 C 330.768 75.237 331.668 76.337 332.868 77.437 C 339.333 83.4 345.256 89.926 350.568 96.937 C 350.768 96.937 350.868 97.137 350.768 97.337 C 350.668 97.537 350.868 97.937 351.268 98.237 C 352.068 98.837 352.568 99.637 353.568 101.637 C 353.968 102.337 354.368 102.937 354.568 102.937 C 354.768 102.937 355.068 103.437 355.368 104.137 C 355.668 104.837 356.068 105.337 356.168 105.337 C 356.368 105.337 356.568 105.637 356.568 105.937 C 356.568 106.237 356.668 106.537 356.868 106.537 C 357.068 106.537 357.668 107.537 358.168 108.737 C 358.668 109.937 359.268 110.937 359.468 110.937 C 359.668 110.937 359.768 111.337 359.768 111.737 C 359.768 112.137 359.968 112.537 360.168 112.537 C 360.368 112.537 360.568 112.737 360.568 112.937 C 360.568 113.137 360.868 113.637 361.168 113.937 C 361.468 114.237 361.668 114.737 361.568 114.937 C 361.468 115.137 361.568 115.337 361.768 115.337 C 361.968 115.337 362.168 115.637 362.168 115.937 C 362.168 116.237 362.368 116.537 362.568 116.537 C 362.768 116.537 362.968 116.837 362.968 117.137 C 362.968 117.437 363.168 117.737 363.468 117.737 C 363.868 117.737 363.868 117.837 363.468 117.937 C 363.168 118.037 363.168 118.337 363.768 118.937 C 364.168 119.437 364.568 120.037 364.568 120.337 C 364.568 120.637 364.868 121.437 365.268 122.137 L 365.968 123.637 C 366.268 125.137 367.168 127.137 367.368 127.037 C 367.568 126.937 367.568 127.037 367.468 127.437 C 367.368 127.737 367.568 128.237 367.868 128.637 C 368.168 128.937 368.468 129.637 368.468 130.037 C 368.468 130.437 368.668 130.937 368.868 131.037 C 369.068 131.137 369.168 131.637 368.968 132.137 C 368.768 132.737 368.868 132.937 369.168 132.737 C 369.468 132.537 369.668 132.937 369.668 133.837 C 369.668 134.637 369.868 135.237 370.068 135.237 C 370.268 135.237 370.468 135.637 370.468 136.037 C 370.468 136.437 370.668 137.137 370.868 137.537 C 371.468 138.737 372.068 141.037 372.068 141.937 C 372.068 142.437 372.268 142.837 372.468 142.837 C 372.668 142.837 372.868 143.337 372.868 144.037 C 372.868 144.737 373.068 145.237 373.268 145.237 C 373.468 145.237 373.668 145.937 373.668 146.837 C 373.668 147.737 373.868 148.437 374.068 148.437 C 374.268 148.437 374.468 149.137 374.468 150.037 C 374.468 150.937 374.568 151.537 374.768 151.437 C 374.968 151.337 375.168 152.037 375.168 153.137 C 375.268 154.137 375.468 155.137 375.668 155.437 C 375.868 155.637 376.068 156.737 376.068 157.837 C 376.068 158.937 376.268 160.037 376.468 160.237 C 376.868 160.637 377.168 162.637 377.768 170.437 C 378.168 175.437 378.068 207.037 377.668 208.437 L 377.268 209.637 C 376.968 210.337 376.668 212.437 376.368 215.337 C 376.268 216.337 375.968 217.237 375.868 217.237 C 375.668 217.237 375.468 218.037 375.368 218.937 C 375.215 221.439 374.57 223.886 373.468 226.137 C 373.268 226.537 373.068 227.337 373.068 227.837 C 373.068 228.437 372.868 228.737 372.668 228.637 C 372.468 228.537 372.268 228.937 372.268 229.637 C 372.268 230.337 372.068 230.937 371.868 231.037 C 371.668 231.137 371.468 231.837 371.468 232.437 C 371.468 233.037 371.268 233.737 371.068 233.837 C 370.868 233.937 370.668 234.437 370.668 234.837 C 370.668 235.237 370.468 235.637 370.268 235.637 C 370.068 235.637 369.868 235.937 369.868 236.437 C 369.868 236.937 369.668 237.337 369.468 237.437 C 369.268 237.537 369.168 237.837 369.268 238.037 C 369.368 238.237 369.068 239.037 368.668 239.937 C 368.268 240.737 367.868 241.737 367.868 242.137 C 367.868 242.537 367.468 243.137 367.068 243.537 C 366.668 243.937 366.368 244.437 366.468 244.637 C 366.568 244.837 366.468 244.937 366.268 244.937 C 366.068 244.937 365.968 245.137 366.068 245.337 C 366.168 245.537 366.068 245.737 365.868 245.737 C 365.668 245.737 365.568 245.937 365.668 246.137 C 365.768 246.337 365.668 246.737 365.268 246.937 C 364.968 247.237 364.668 247.637 364.668 247.937 C 364.668 248.237 364.468 248.537 364.268 248.537 C 364.068 248.537 363.868 248.737 363.868 249.037 C 363.868 249.337 363.568 250.037 363.168 250.537 C 362.768 251.037 362.468 251.737 362.368 252.037 L 361.668 253.137 C 361.268 253.537 361.168 253.937 361.268 254.237 C 361.468 254.537 361.368 254.537 361.068 254.337 C 360.768 254.137 360.568 254.237 360.568 254.437 C 360.568 254.637 360.068 255.437 359.368 256.137 C 358.668 256.837 358.168 257.637 358.168 257.937 C 358.168 258.237 357.968 258.437 357.768 258.437 C 357.568 258.437 357.368 258.537 357.368 258.737 C 357.568 259.737 357.268 260.237 356.968 259.637 C 356.668 259.137 356.568 259.237 356.568 259.937 C 356.568 260.437 356.268 260.937 355.768 261.037 C 355.368 261.137 354.968 261.537 354.968 261.737 C 353.875 263.726 352.416 265.49 350.668 266.937 C 349.768 267.837 348.968 268.737 348.968 269.037 C 348.968 269.337 348.868 269.537 348.668 269.437 C 348.468 269.337 347.468 270.237 346.368 271.337 C 342.668 275.037 341.868 275.637 340.868 275.337 C 339.968 275.137 338.668 273.137 338.668 272.037 C 338.668 271.737 338.468 271.537 338.268 271.737 C 337.968 271.937 337.268 269.837 337.368 269.037 C 337.368 268.837 337.268 268.737 337.168 268.737 C 336.968 268.737 336.568 268.137 336.268 267.437 C 335.968 266.737 335.368 265.837 334.968 265.337 C 334.568 264.937 334.268 264.237 334.268 263.937 C 334.268 263.537 333.868 262.937 333.468 262.437 C 333.12 262.059 332.848 261.618 332.668 261.137 C 332.668 260.537 331.568 259.537 331.268 259.837 C 331.068 260.037 331.068 259.937 331.068 259.737 C 331.268 259.237 327.668 253.937 327.268 254.237 C 327.068 254.337 326.968 254.037 326.968 253.637 C 326.968 253.237 326.868 252.837 326.668 252.837 C 326.468 252.837 326.168 252.437 325.968 251.937 C 325.768 251.437 325.368 251.037 325.068 251.137 C 324.768 251.237 324.668 251.037 324.768 250.937 C 324.868 250.737 324.568 250.137 323.968 249.537 C 323.468 248.937 322.968 248.337 322.968 248.137 C 322.968 247.937 321.768 246.637 320.368 245.137 C 319.278 244.114 318.306 242.974 317.468 241.737 C 317.268 241.737 315.768 240.437 314.168 238.837 C 313.01 237.685 311.774 236.616 310.468 235.637 C 310.069 235.512 309.79 235.154 309.768 234.737 C 309.768 234.437 309.568 234.137 309.368 234.137 C 308.968 234.137 307.868 233.337 306.368 231.937 C 305.468 231.037 305.168 230.937 304.568 230.937 C 304.368 230.937 304.268 230.737 304.368 230.537 C 304.468 230.337 304.368 230.137 303.968 230.137 C 303.568 230.137 303.468 229.937 303.568 229.737 C 303.668 229.537 303.568 229.337 303.268 229.337 C 302.968 229.337 301.668 228.637 300.468 227.737 C 299.268 226.837 298.168 226.237 298.068 226.337 C 297.968 226.437 297.368 226.037 296.768 225.537 C 296.168 224.937 295.568 224.637 295.368 224.737 C 295.168 224.837 294.968 224.837 294.968 224.637 C 294.968 224.137 291.868 222.537 290.868 222.537 C 290.368 222.537 290.168 222.437 290.268 222.237 C 290.568 221.937 288.768 220.937 287.968 220.937 C 287.668 220.937 287.368 220.737 287.268 220.537 C 287.168 220.337 286.668 220.137 286.068 220.037 C 285.468 220.037 285.068 219.837 285.168 219.637 C 285.268 219.437 285.068 219.337 284.768 219.337 C 284.168 219.337 283.768 219.137 281.868 218.237 C 281.368 217.937 280.568 217.737 279.968 217.737 C 279.468 217.737 278.868 217.537 278.768 217.337 C 278.668 217.137 278.068 216.937 277.568 216.937 C 277.068 216.937 276.568 216.737 276.568 216.537 C 276.568 216.337 275.768 216.137 274.768 216.137 C 273.668 216.137 273.068 215.937 273.168 215.737 C 273.268 215.537 272.768 215.337 271.768 215.337 C 270.868 215.337 270.168 215.137 270.168 214.937 C 270.168 214.737 269.068 214.537 267.768 214.537 C 262.837 213.511 257.801 213.075 252.768 213.237 C 246.905 213.206 241.051 213.674 235.268 214.637 C 231.068 215.037 229.368 215.337 229.368 215.737 C 229.368 215.937 228.768 216.137 228.068 216.137 C 226.768 216.137 224.068 216.937 223.468 217.437 C 223.268 217.637 222.768 217.737 222.168 217.737 C 219.842 218.313 217.662 219.369 215.768 220.837 C 215.768 220.337 213.368 221.737 213.368 222.137 C 213.368 222.337 213.068 222.537 212.768 222.537 C 212.468 222.537 211.868 222.937 211.568 223.437 C 211.268 223.937 210.868 224.337 210.768 224.237 L 210.068 224.137 C 209.668 224.137 209.668 224.237 210.068 224.337 C 210.568 224.537 208.968 226.437 208.268 226.437 C 207.668 226.437 204.968 230.837 204.968 231.837 C 204.968 232.137 204.868 232.437 204.668 232.437 C 204.468 232.437 204.268 233.337 204.268 234.337 C 204.168 235.337 203.968 236.437 203.768 236.637 C 203.268 237.237 203.268 238.437 203.868 238.437 C 204.268 238.437 204.268 238.537 203.868 238.837 C 203.468 239.037 203.468 239.237 203.768 239.437 C 204.068 239.637 204.168 241.037 204.168 243.037 C 204.168 244.837 204.368 246.537 204.568 246.637 C 204.768 246.737 204.968 247.237 204.968 247.737 C 204.968 248.637 205.568 250.737 206.368 252.637 C 206.668 253.337 206.768 253.937 206.668 254.137 C 206.568 254.337 206.668 254.437 206.868 254.437 C 207.068 254.437 207.268 254.837 207.268 255.237 C 207.268 255.637 207.468 256.037 207.668 256.037 C 207.868 256.037 208.068 256.337 208.068 256.637 C 208.068 257.237 208.868 258.837 209.368 259.237 C 209.568 259.337 209.868 259.937 210.168 260.637 C 210.913 262.37 212.002 263.935 213.368 265.237 C 213.568 265.237 213.668 265.637 213.668 266.037 C 213.668 266.437 213.868 266.737 213.968 266.637 C 214.168 266.537 214.468 266.837 214.768 267.437 C 214.968 267.937 215.368 268.437 215.668 268.437 C 215.868 268.437 216.068 268.737 216.068 269.137 C 216.068 269.537 216.668 270.337 217.268 270.937 C 217.968 271.537 218.368 272.237 218.268 272.437 C 218.168 272.637 218.168 272.837 218.468 272.837 C 218.668 272.837 218.868 273.037 218.868 273.337 C 218.868 273.637 219.168 274.037 219.568 274.437 L 221.268 276.437 L 222.968 278.637 C 223.368 279.037 223.668 279.537 223.668 279.737 C 223.668 279.937 223.868 279.937 224.068 279.837 C 224.268 279.737 224.468 279.737 224.468 279.937 C 224.368 280.737 224.568 281.337 224.868 281.037 C 225.168 280.837 225.268 280.937 225.268 281.837 L 225.668 282.537 C 227.268 284.437 228.768 286.737 228.568 286.937 C 228.468 287.037 228.568 287.137 228.768 287.137 C 229.068 287.137 229.268 287.337 229.268 287.637 C 229.268 287.937 229.568 288.537 229.968 288.937 C 230.568 289.537 232.968 294.037 233.068 294.737 C 233.345 295.753 233.821 296.705 234.468 297.537 C 234.668 297.537 234.768 298.037 234.668 298.537 C 234.568 299.137 234.768 299.637 235.068 299.837 C 235.368 300.037 235.668 300.737 235.768 301.437 L 236.368 303.737 L 236.768 305.737 C 236.768 306.337 236.968 306.637 237.168 306.537 C 237.368 306.337 237.568 307.037 237.568 308.137 C 237.568 309.237 237.768 309.937 237.968 309.737 C 238.168 309.537 238.368 310.237 238.368 311.337 C 238.368 312.337 238.568 313.137 238.768 313.137 C 238.968 313.137 239.168 314.037 239.168 315.137 C 239.168 316.237 239.368 317.037 239.468 316.937 C 239.668 316.837 239.868 318.237 239.868 320.037 C 239.868 321.837 240.068 323.437 240.368 323.437 C 240.868 323.637 240.868 349.137 240.368 349.137 C 240.168 349.137 239.968 350.237 239.968 351.737 C 239.968 353.137 239.768 354.337 239.568 354.437 C 239.368 354.537 239.168 355.637 239.068 356.837 C 238.968 358.137 238.868 359.037 238.668 358.937 C 238.468 358.837 238.368 359.537 238.368 360.537 C 238.368 361.537 238.168 362.437 237.968 362.537 C 237.768 362.637 237.568 363.337 237.568 363.937 C 237.568 364.537 237.368 365.437 237.168 365.837 C 236.364 367.616 235.825 369.502 235.568 371.437 C 235.568 371.937 235.368 372.337 235.168 372.337 C 234.968 372.337 234.868 372.537 234.968 372.737 C 235.068 372.937 235.068 373.137 234.768 373.137 C 234.568 373.137 234.468 373.537 234.568 373.937 C 234.668 374.337 234.568 374.637 234.368 374.537 C 234.168 374.437 233.968 374.637 233.968 375.137 C 233.868 376.337 233.868 376.437 233.168 377.537 C 232.868 378.037 232.368 379.037 232.168 379.737 L 231.168 382.337 C 230.868 383.137 230.568 383.837 230.368 383.937 L 229.568 385.537 L 228.768 387.137 C 228.168 387.537 227.268 389.837 227.468 390.137 C 227.668 390.337 227.568 390.337 227.268 390.137 C 226.868 389.837 226.568 390.537 226.668 391.537 C 226.668 391.737 226.368 391.937 225.868 392.037 C 225.368 392.237 225.068 392.637 225.068 393.237 C 225.068 393.837 224.768 394.237 224.268 394.437 C 223.868 394.537 223.468 394.937 223.468 395.337 C 223.468 395.637 223.068 396.337 222.568 396.737 C 222.068 397.137 221.968 397.437 222.168 397.437 C 222.468 397.437 222.068 397.937 221.468 398.637 C 220.768 399.237 220.268 400.137 220.268 400.437 C 220.268 400.837 220.068 401.037 219.868 400.837 C 219.668 400.737 219.368 401.037 219.268 401.637 C 219.168 402.137 218.768 402.637 218.368 402.637 C 218.068 402.637 217.768 402.837 217.868 403.137 C 217.968 403.637 217.668 404.037 214.668 407.237 C 213.868 408.137 213.468 408.637 213.768 408.437 C 214.068 408.237 213.868 408.637 213.168 409.337 C 212.468 410.037 211.768 410.637 211.468 410.637 C 211.168 410.637 210.868 410.937 210.768 411.237 C 210.668 411.537 210.268 411.837 209.968 411.837 C 209.668 411.837 209.468 412.037 209.668 412.237 C 209.768 412.437 209.668 412.637 209.468 412.637 C 209.268 412.637 209.168 412.837 209.268 413.037 C 209.368 413.237 209.368 413.437 209.168 413.437 C 208.368 413.337 207.868 413.537 207.868 414.137 C 207.868 414.437 207.568 414.837 207.168 415.037 C 206.768 415.137 205.768 415.937 204.968 416.837 C 204.168 417.637 203.468 418.237 203.468 418.037 C 203.468 417.837 203.268 418.037 203.068 418.437 C 202.868 418.837 202.368 419.137 201.968 419.137 C 201.568 419.137 201.468 419.237 201.568 419.337 C 201.868 419.637 199.268 421.437 198.668 421.437 C 198.468 421.437 198.068 421.837 197.668 422.237 C 197.268 422.637 196.668 423.037 196.368 423.037 C 196.068 423.037 195.968 423.237 196.068 423.537 C 196.268 423.837 196.168 423.937 195.668 423.737 C 195.268 423.637 194.768 423.737 194.468 424.037 C 194.168 424.337 193.668 424.637 193.468 424.637 C 193.268 424.637 192.768 425.037 192.468 425.537 C 192.068 426.037 191.668 426.337 191.268 426.137 C 190.968 426.037 190.668 426.037 190.668 426.237 C 190.668 426.437 190.268 426.737 189.668 426.837 C 189.068 426.937 188.768 427.237 188.968 427.537 C 189.168 427.837 188.868 427.837 188.368 427.737 C 187.868 427.637 187.468 427.737 187.268 428.137 C 187.151 428.426 186.878 428.621 186.568 428.637 C 186.268 428.537 185.468 428.837 184.768 429.237 C 184.068 429.637 183.068 429.937 182.668 429.937 C 182.168 429.937 181.968 430.137 182.068 430.337 C 182.168 430.537 181.968 430.737 181.568 430.737 C 180.668 430.737 178.668 431.637 178.668 432.037 C 178.668 432.237 178.168 432.337 177.668 432.337 C 177.168 432.337 176.668 432.537 176.668 432.837 C 176.668 433.237 176.568 433.237 176.468 432.837 C 176.968 432.237 176.468 432.337 175.468 432.837 C 174.668 433.237 173.568 433.637 172.968 433.637 C 172.368 433.637 171.668 433.837 171.468 434.037 C 171.268 434.237 170.468 434.437 169.668 434.537 C 168.868 434.637 168.168 434.737 168.068 434.937 C 167.968 435.037 167.268 435.237 166.468 435.237 C 165.668 435.237 164.868 435.437 164.668 435.637 C 164.268 435.937 162.268 436.337 157.668 436.837 M 72.568 373.837 C 78.568 376.837 87.268 374.037 90.068 368.237 L 90.968 366.337 C 91.168 365.937 91.368 364.137 91.368 362.237 C 91.368 360.337 91.168 358.537 90.968 358.137 L 90.068 356.237 C 89.068 354.037 85.668 351.037 83.168 350.137 C 76.968 347.837 69.568 350.637 66.968 356.237 L 66.068 358.137 C 65.868 358.537 65.668 360.337 65.668 362.237 C 65.668 364.137 65.868 365.937 66.068 366.337 L 66.968 368.137 C 68.241 370.541 70.187 372.521 72.568 373.837" transform="matrix(-1, 0, 0, -1, 418.502106, 474.740082)"></path>
  <path fill="#666664" d="M 343.365 124.344 C 334.665 127.044 325.465 117.644 328.365 109.144 C 332.465 97.344 347.965 97.244 351.765 108.944 C 353.953 115.541 350.096 122.612 343.365 124.344" transform="matrix(-1, 0, 0, -1, 680.198914, 225.046906)"></path>
  <path fill="#c1a464" d="M 345.344 123.703 C 333.944 129.403 322.144 115.303 329.744 104.903 C 336.044 96.303 350.844 99.103 352.344 109.203 C 352.544 110.503 352.444 110.403 351.844 108.603 C 347.244 95.603 327.744 98.503 327.744 112.303 C 327.744 126.603 347.444 128.803 352.044 115.103 C 352.344 114.203 352.444 114.103 352.444 114.703 C 352.544 117.503 349.044 121.903 345.344 123.703 M 352.744 112.303 C 352.744 113.203 352.644 113.603 352.544 113.203 C 352.444 112.803 352.444 112.103 352.544 111.603 C 352.744 111.103 352.744 111.403 352.744 112.303" transform="matrix(-1, 0, 0, -1, 680.078003, 224.805847)"></path>
  <path fill="#fc9c40" d="M 329.166 194.772 L 327.666 196.672 C 327.166 196.672 332.766 189.372 336.266 185.472 L 337.166 184.472 L 336.466 185.472 L 333.166 189.672 C 331.747 191.303 330.412 193.006 329.166 194.772 M 342.766 179.672 C 341.166 181.072 341.066 180.972 342.366 179.472 C 342.966 178.772 343.566 178.372 343.666 178.472 C 343.866 178.572 343.366 179.072 342.766 179.672 M 345.766 177.072 C 344.266 178.372 343.966 178.572 344.366 177.972 C 344.466 177.772 345.166 177.172 345.866 176.772 C 347.166 175.772 347.166 175.772 345.766 177.072 M 349.666 174.272 C 348.066 175.372 346.366 176.172 347.466 175.272 C 348.783 174.279 350.189 173.408 351.666 172.672 C 351.666 172.772 350.866 173.572 349.666 174.272 M 353.266 172.072 C 352.066 172.972 351.866 172.772 352.966 171.872 C 354.066 170.972 366.166 164.772 365.566 165.372 L 359.566 168.672 C 356.566 170.172 353.766 171.772 353.266 172.072 M 372.866 160.472 C 372.101 161.279 371.264 162.016 370.366 162.672 C 370.166 162.672 370.866 161.872 371.866 160.972 C 372.866 160.072 373.866 158.872 374.166 158.472 C 374.366 158.072 374.766 157.772 374.866 157.972 C 374.966 158.072 374.066 159.272 372.866 160.472 M 377.166 151.672 C 376.966 152.472 376.766 153.072 376.666 152.972 C 376.566 152.872 376.566 152.072 376.766 151.272 C 376.866 150.472 377.166 149.872 377.266 149.972 C 377.366 150.072 377.366 150.872 377.166 151.672 M 377.366 145.472 C 377.366 145.972 377.366 145.972 376.966 145.472 C 376.766 145.172 376.566 144.472 376.566 144.072 L 376.566 143.272 L 376.866 144.072 C 377.147 144.489 377.319 144.971 377.366 145.472 M 375.266 140.472 C 376.066 141.972 375.766 141.772 374.366 139.672 C 373.766 138.772 373.566 138.372 373.966 138.672 C 374.366 138.972 374.966 139.772 375.266 140.472 M 371.566 135.872 C 372.666 136.972 373.466 137.872 373.266 137.872 C 373.066 137.872 372.266 137.072 371.266 135.972 C 368.15 132.874 364.733 130.093 361.066 127.672 C 358.266 125.772 357.266 124.972 359.066 125.872 C 361.766 127.372 368.566 132.772 371.566 135.872" transform="matrix(-1, 0, 0, -1, 705.000671, 322.174652)"></path>
  <path fill="#fcb44c" d="M 168.176 260.503 C 167.476 261.503 166.676 262.303 166.576 262.303 C 166.376 262.303 166.876 261.503 167.676 260.503 C 169.576 258.203 169.876 258.203 168.176 260.503 M 170.976 257.003 C 170.476 257.703 169.876 258.303 169.676 258.303 C 169.176 258.303 169.276 258.103 170.676 256.903 L 171.976 255.703 L 170.976 257.003 M 175.776 252.003 C 174.577 253.241 173.308 254.41 171.976 255.503 C 173.443 253.523 175.195 251.77 177.176 250.303 C 178.576 249.103 178.076 249.703 175.776 252.003 M 183.676 245.503 C 183.095 245.981 182.457 246.384 181.776 246.703 C 181.476 246.703 183.776 244.803 184.676 244.303 C 186.076 243.503 185.476 244.303 183.676 245.503 M 187.776 242.703 C 186.776 243.503 186.176 243.703 186.176 243.303 C 186.176 243.203 186.776 242.803 187.476 242.503 L 188.776 241.903 L 187.776 242.703 M 198.676 236.903 C 196.976 237.803 195.676 238.203 196.176 237.803 C 196.576 237.403 200.576 235.603 200.576 235.703 L 198.676 236.903 M 205.976 232.503 C 204.776 233.603 204.576 233.703 204.576 233.403 C 204.576 233.303 205.176 232.803 205.876 232.403 L 207.176 231.503 L 205.976 232.503 M 208.876 230.203 C 207.776 231.403 207.476 231.703 207.476 231.403 L 208.776 230.103 L 210.076 228.903 L 208.876 230.203 M 211.976 225.303 C 211.676 226.103 211.276 226.703 211.176 226.703 C 211.076 226.703 211.176 226.203 211.476 225.603 L 212.476 222.703 C 212.976 221.003 212.976 221.003 212.776 222.403 C 212.676 223.203 212.276 224.503 211.976 225.303 M 213.276 217.503 C 213.276 218.903 213.176 219.503 213.076 218.803 L 213.076 216.203 C 213.176 215.503 213.276 216.103 213.276 217.503 M 212.976 214.003 C 212.976 214.303 212.876 214.303 212.676 213.903 L 211.676 211.803 L 211.076 210.303 C 211.476 210.303 213.076 213.403 212.976 214.003 M 210.976 209.603 C 208.494 206.537 205.751 203.693 202.776 201.103 C 205.817 203.622 208.568 206.473 210.976 209.603 M 193.776 194.803 L 194.776 195.603 L 193.676 195.003 L 188.976 192.403 C 188.476 192.103 188.176 191.803 188.276 191.703 C 188.376 191.603 188.976 191.803 189.576 192.203 L 191.676 193.503 C 192.376 193.703 193.276 194.303 193.776 194.803 M 373.376 129.903 C 371.976 130.403 371.476 130.403 372.176 129.903 C 372.476 129.703 373.176 129.503 373.576 129.503 C 374.276 129.603 374.276 129.603 373.376 129.903" transform="matrix(-1, 0, 0, -1, 540.610229, 391.80603)"></path>
  <path fill="#f5bc5a" d="M 366.54 138.203 L 365.04 139.703 C 364.74 139.703 365.04 139.403 366.44 138.103 L 367.94 136.703 L 366.54 138.203" transform="matrix(-1, 0, 0, -1, 732.874268, 276.406006)"></path>
  <path fill="#e4bc64" d="M 45.834 61.103 C 46.034 61.303 45.834 61.303 45.434 61.003 C 45.034 60.803 44.234 60.203 43.834 59.703 C 43.134 58.803 43.834 59.303 45.834 61.103 M 65.434 54.003 C 65.034 55.103 64.934 54.503 65.234 53.003 C 65.434 52.103 65.534 51.903 65.634 52.503 L 65.434 54.003 M 40.834 54.303 C 40.834 54.503 40.634 54.503 40.434 54.403 C 40.234 54.303 40.034 53.803 40.034 53.303 C 40.134 52.403 40.734 53.303 40.834 54.303 M 65.634 48.203 C 65.634 49.503 65.434 49.203 65.134 47.403 C 64.934 46.403 65.034 46.203 65.234 46.603 C 65.534 46.903 65.634 47.603 65.634 48.203 M 44.534 40.903 C 43.234 42.103 42.934 42.103 44.034 40.903 C 44.534 40.403 45.434 39.703 46.234 39.303 C 47.534 38.603 47.534 38.603 46.534 39.303 L 44.534 40.903 M 59.234 39.103 L 57.634 38.703 C 56.734 38.403 56.134 38.003 56.234 37.903 C 56.434 37.703 59.234 38.903 59.234 39.103 M 53.734 37.503 C 54.234 37.603 53.834 37.703 52.834 37.703 C 51.834 37.703 51.434 37.603 51.934 37.503 L 53.734 37.503 M 352.834 125.403" transform="matrix(-1, 0, 0, -1, 392.868011, 162.905991)"></path>
</svg>